HIERARCHY
ROOT Hips
{
  OFFSET 41.5837 103.804 -23.7772
  CHANNELS 6 Xposition Yposition Zposition Zrotation Xrotation Yrotation
  JOINT ToSpine
  {
    OFFSET -2.69724 7.43032 -0.144315
    CHANNELS 3 Zrotation Xrotation Yrotation
    JOINT Spine
    {
      OFFSET -0.0310711 10.7595 1.96963
      CHANNELS 3 Zrotation Xrotation Yrotation
      JOINT Spine1
      {
        OFFSET 19.9056 3.91189 0.764692
        CHANNELS 3 Zrotation Xrotation Yrotation
        JOINT Neck
        {
          OFFSET 25.9749 7.03908 -0.130764
          CHANNELS 3 Zrotation Xrotation Yrotation
          JOINT Head
          {
            OFFSET 9.52751 0.295786 -0.907742
            CHANNELS 3 Zrotation Xrotation Yrotation
            End Site
            {
              OFFSET 16.4037 0.713936 2.7358
            }
          }
        }
        JOINT LeftShoulder
        {
          OFFSET 17.7449 4.33886 11.7777
          CHANNELS 3 Zrotation Xrotation Yrotation
          JOINT LeftArm
          {
            OFFSET 0.911315 1.27913 9.80584
            CHANNELS 3 Zrotation Xrotation Yrotation
            JOINT LeftForeArm
            {
              OFFSET 28.6126 1.18197 -3.53199
              CHANNELS 3 Zrotation Xrotation Yrotation
              JOINT LeftHand
              {
                OFFSET 27.5088 0.0218783 0.327423
                CHANNELS 3 Zrotation Xrotation Yrotation
                End Site
                {
                  OFFSET 18.6038 -0.000155887 0.382096
                }
              }
            }
          }
        }
        JOINT RightShoulder
        {
          OFFSET 17.1009 2.89543 -12.2328
          CHANNELS 3 Zrotation Xrotation Yrotation
          JOINT RightArm
          {
            OFFSET 1.4228 0.178766 -10.211
            CHANNELS 3 Zrotation Xrotation Yrotation
            JOINT RightForeArm
            {
              OFFSET 28.733 1.87905 2.64907
              CHANNELS 3 Zrotation Xrotation Yrotation
              JOINT RightHand
              {
                OFFSET 27.4588 0.290562 -0.101845
                CHANNELS 3 Zrotation Xrotation Yrotation
                End Site
                {
                  OFFSET 17.8396 -0.255518 -0.000602873
                }
              }
            }
          }
        }
      }
    }
  }
  JOINT LeftUpLeg
  {
    OFFSET -5.61296 -2.22332 -10.2353
    CHANNELS 3 Zrotation Xrotation Yrotation
    JOINT LeftLeg
    {
      OFFSET 2.56703 -44.7417 -7.93097
      CHANNELS 3 Zrotation Xrotation Yrotation
      JOINT LeftFoot
      {
        OFFSET 3.16933 -46.5642 -3.96578
        CHANNELS 3 Zrotation Xrotation Yrotation
        JOINT LeftToeBase
        {
          OFFSET 0.346054 -6.02161 12.8035
          CHANNELS 3 Zrotation Xrotation Yrotation
          End Site
          {
            OFFSET 0.134235 -1.35082 5.13018
          }
        }
      }
    }
  }
  JOINT RightUpLeg
  {
    OFFSET -5.7928 -1.72406 10.6446
    CHANNELS 3 Zrotation Xrotation Yrotation
    JOINT RightLeg
    {
      OFFSET -2.57161 -44.7178 -7.85259
      CHANNELS 3 Zrotation Xrotation Yrotation
      JOINT RightFoot
      {
        OFFSET -3.10148 -46.5936 -4.03391
        CHANNELS 3 Zrotation Xrotation Yrotation
        JOINT RightToeBase
        {
          OFFSET -0.0828122 -6.13587 12.8035
          CHANNELS 3 Zrotation Xrotation Yrotation
          End Site
          {
            OFFSET -0.131328 -1.35082 5.13018
          }
        }
      }
    }
  }
}
MOTION
Frames:	6
Frame Time:	0.0333333
-64.4652 102.507 45.7947 77.1447 -4.55691 2.39543 -70.1915 0 88.8779 85.2501 74.178 5.86646 5.2411 23.8161 0.739646 -126.009 16.4641 174.485 -144.256 50.8941 159.39 2.84441 -2.08682 -35.5137 -109.818 43.9119 -66.6063 -10.0801 49.92 5.06203 -5.37325 -0.116674 4.58699 0.461159 -1.54973 42.4227 -64.822 -35.9756 106.939 8.93062 -9.24963 33.5037 14.06 -0.527587 -4.84169 -42.2722 -0.842567 92.3788 1.61807 15.7997 3.19095 7.07956 17.2453 -0.782925 -9.81443 -31.2574 15.0822 -72.0868 11.1895 88.113 0.697618 33.124 5.23837 -7.50186 -4.21867 1.10686 -4.47792 -22.318 -4.22677 
-60.468 102.651 45.6302 77.6229 -3.71313 1.11102 -70.1915 0 88.8779 79.7509 74.1652 8.67124 5.67217 23.8696 0.699835 -124.902 16.2519 173.478 -142.595 50.318 157.781 2.87927 -1.78555 -35.057 -109.309 43.4133 -67.7628 -8.94455 48.5251 3.43022 -4.27775 -0.0529699 3.53509 0.45656 -1.5101 43.3079 -63.9296 -36.6828 106.093 8.89293 -9.80435 31.7132 13.3121 -0.395007 -3.91685 -43.5312 -2.34773 92.8636 1.31413 17.8764 4.4053 6.8767 16.3321 -0.739956 -8.22773 -21.9633 6.67508 -72.5766 8.30666 86.8661 1.72826 36.8953 4.55972 -7.06901 -3.516 1.06296 -4.13848 -21.8903 -0.486087 
-56.8103 102.783 45.3713 77.7375 -2.4989 0.341418 -70.1915 0 88.8779 75.9864 74.0681 10.3007 5.52982 23.7281 0.87119 -124.304 16.547 174.065 -144.153 51.109 159.444 2.87315 -1.65834 -34.6028 -108.751 43.4079 -69.1613 -7.2338 47.147 1.00636 -2.53412 -0.0254541 3.53965 0.50347 -1.67497 43.2053 -62.3309 -38.162 105.918 8.46825 -10.1081 28.9506 13.2153 -0.449345 -4.43648 -44.0479 -4.08807 92.7949 1.57645 20.7103 5.65007 8.75682 14.841 -1.22195 -7.50446 -19.0094 3.22004 -70.624 4.68268 82.6469 2.22343 43.5182 4.66181 -6.46372 -3.67118 1.00999 -2.89855 -15.8984 8.35152 
-53.4634 103.065 45.0017 78.2851 -1.97252 0.0670392 -70.1915 0 88.8779 78.4214 74.3675 7.15481 4.76369 23.8733 0.495867 -124.058 16.7006 175.083 -145.332 51.4738 161.15 2.9325 -1.40372 -34.6376 -107.22 43.2456 -72.8903 -7.87857 47.9848 1.5404 -0.161251 0.00940115 1.64841 0.471276 -1.58017 42.6137 -60.4766 -39.7357 106.068 7.48588 -9.48635 25.6796 12.0283 -0.354167 -3.91146 -45.188 -4.83809 93.1505 1.64625 23.2656 5.76275 8.99757 12.8437 -1.26991 -6.02544 -14.8883 1.10831 -67.5351 2.14807 81.0278 3.02909 51.7454 3.57912 -4.82043 0.459233 0.740998 -2.4993 -7.16083 16.2377 
-50.3505 103.384 44.7113 79.1194 -1.75357 -0.418348 -70.1915 0 88.8779 82.185 74.7622 1.97455 3.83332 23.9993 1.04256 -124.477 16.9487 174.672 -143.404 51.101 158.884 3.17287 -0.178069 -34.2822 -105.375 43.8859 -78.5947 -10.7149 51.7434 4.98171 3.27322 -0.0555912 -0.347162 0.390835 -1.29372 42.7591 -59.35 -39.8706 106.059 6.18288 -9.3841 22.762 10.8839 -0.193722 -2.52363 -47.5179 -5.55837 93.5951 1.55621 23.9512 5.56528 9.76128 12.9922 -1.44715 -7.53003 -18.3206 -0.0220129 -63.5088 0.572766 81.8417 4.70742 61.2423 1.72983 -4.45957 4.3003 0.572165 -1.94621 6.43471 16.1229 
-47.2911 103.716 44.4986 80.6205 -1.15389 -0.976223 -70.1915 0 88.8779 87.2966 74.8026 -5.22381 3.17508 23.7219 2.03863 -124.793 16.7014 176.47 -144.279 50.7045 160.515 3.05695 -0.786243 -34.4856 -103.965 43.8814 -82.5492 -8.8897 48.9547 2.25803 2.00153 -0.0125507 0.638276 0.336301 -1.10037 42.9146 -64.3534 -40.1323 103.398 3.56639 -14.2587 19.0293 10.0513 -0.145677 -2.13304 -50.9683 -6.50709 93.9772 1.51283 23.8403 5.1507 10.034 12.6169 -1.50472 -8.71482 -20.7583 -1.27754 -59.9859 -1.07603 82.3959 7.34079 69.393 -1.98519 -3.96427 5.81597 0.438633 0.32123 17.0866 9.52089 
